<?xml version="1.0" encoding="utf-8"?>
<!-- Generator: Adobe Illustrator 22.1.0, SVG Export Plug-In . SVG Version: 6.00 Build 0)  -->
<svg version="1.1" id="Layer_1" xmlns="http://www.w3.org/2000/svg" xmlns:xlink="http://www.w3.org/1999/xlink" x="0px" y="0px"
	 viewBox="0 0 1466.9 377.7" style="enable-background:new 0 0 1466.9 377.7;" xml:space="preserve">
<style type="text/css">
	.st0{stroke:#000000;stroke-miterlimit:10;}
	.st1{fill:#2A2E7D;}
	.st2{fill:none;stroke:#2A2E7D;stroke-miterlimit:10;}
</style>
<g>
	<path class="st1" d="M1301.2,130.4c14.2-0.8,26.8-2.7,39.4-2.1c20.8,1,40.4,6.1,53.9,24.1c8.3,11.2,12.5,24,12.6,37.8
		c0.3,36.1,0.1,72.2,0.4,108.3c0.1,7.7-3.1,10.5-10.4,10c-2.2-0.2-4.4,0-6.6,0c-18.5-0.5-24.7-6.7-24.7-25.3
		c0-28.6,0.1-57.3-0.1-85.9c-0.1-17.1-7.3-27.6-21.3-30.1c-7.4-1.3-15.5-1.3-23-0.1c-13.1,2.1-20,11.5-20.1,25.3
		c-0.1,33.6,0,67.2,0,100.8c0,15.3,0,15.3-15.7,15.3c-6.3,0-12.7-0.1-19,0c-5.8,0.1-8.8-2.4-8.5-8.4c0.1-1.4,0-2.8,0-4.1
		c0-65,0-130,0-195c0-11.8,0.6-12.4,11.9-12.5c23.4-0.2,31.2,7.5,31.3,31C1301.2,122.9,1301.2,126.4,1301.2,130.4z"/>
	<path class="st1" d="M1061.8,252.9c-4,14.5-10.4,25.8-20.4,34.9c-28.2,25.5-77.7,27.8-106.9,3.6c-9.1-7.6-16.8-18.7-21.4-29.7
		c-11.5-28.1-12.2-57.4-2.5-86.5c12.9-38.6,46.8-53.2,82.6-49.9c3.8,0.4,7.7,1,11.4,1.7c32.3,6.3,52.3,27.4,58.1,61.8
		c1.5,9.2,1.3,18.6,2.1,27.9c0.7,7.9-2.7,10.8-10.5,10.7c-31.4-0.3-62.8-0.1-94.2-0.1c-12.3,0-12.8,0.8-10.1,12.8
		c3.2,14.1,9.8,25.7,24.7,29.2c15,3.5,29.6,2.7,41-10.3c2.4-2.7,6.2-5.7,9.6-5.9C1036.9,252.5,1048.7,252.9,1061.8,252.9z
		 M951.1,200c23.4,0,46.3,0,69.1,0c-0.1-25-13.9-39.3-36-38.2C962.8,162.8,948.9,178.5,951.1,200z"/>
	<path class="st1" d="M421.5,127.4c6.5,3.6,12.2,5.9,16.6,9.6c4.6,3.9,7.8,4.1,13.1,1.3c28.7-15,58-13.7,86.6-0.4
		c18.5,8.6,28.9,25.4,30,44.7c2.2,39,1.7,78.2,2.3,117.3c0.1,5.4-2.6,8.6-8,8.3c-7.1-0.4-14.5-0.5-21.3-2.3
		c-8.3-2.3-12.3-8.8-12.3-17.5c-0.1-26.2-0.2-52.4-0.4-78.5c0-5.2-0.4-10.5-0.6-15.7c-0.6-22.9-16.4-30.6-38.5-28.8
		c-17.6,1.4-26.3,12.4-26.4,31c-0.2,33.1-0.1,66.1-0.1,99.2c0,12-0.8,12.8-12.5,12.9c-7.2,0-14.3-0.1-21.5,0c-5.8,0-8.4-2.4-8.4-8.5
		c0.1-55.4,0-110.8,0-166.2C420.2,132.4,420.7,131.1,421.5,127.4z"/>
	<path class="st1" d="M245,127.7c6,3.4,11.6,5.5,15.7,9.2c4.8,4.3,8.4,4.2,13.8,1.3c26.9-14.4,54.9-13.1,82.2-2.4
		c21.8,8.5,33.2,27.2,34.4,49.6c2,37.9,1.4,76,2,114c0.1,6.9-3.5,9.5-9.9,9c-6-0.5-12.2-0.7-18-2c-8.1-1.8-13.1-7.3-13.5-15.6
		c-0.6-11.3-0.6-22.6-0.7-33.9c-0.3-20.4-0.9-40.8-0.5-61.1c0.5-25.8-19.2-32.1-38.4-30.4c-17.6,1.5-26.1,12.3-26.2,31.1
		c-0.2,32.8-0.1,65.6-0.1,98.4c0,13-0.7,13.7-13.4,13.7c-7.2,0-14.3,0-21.5-0.1c-4.5,0-7.3-1.9-7.3-6.9c0.1-56.2,0-112.4,0.1-168.6
		C243.5,131.7,244.1,130.7,245,127.7z"/>
	<path class="st1" d="M1081.8,212.7c1.6-9.7,2.6-22.7,6.2-35c11.7-40,44.8-55.8,83-52.4c22.5,2,42.5,9.9,55.6,29.6
		c3.8,5.7,6.6,12.1,9.6,18.3c2.5,5.2,0.5,7.6-5.2,7.8c-17.5,0.5-33.5-0.4-48.5-13.1c-18.5-15.8-48.4-4.5-54.7,18.7
		c-5.4,20.1-5.5,40.4,1.4,60.2c7.9,22.7,33.9,32,53,17.4c14.7-11.2,30.2-14.9,47.8-13.9c8.9,0.5,9.5,1.1,6.2,9.8
		c-11.2,28.7-33.1,43.2-62.9,46.3c-18.6,1.9-37.1,0.3-53.6-9.6c-20.9-12.5-31.2-32-35-55.4C1083.3,233.1,1082.9,224.6,1081.8,212.7z
		"/>
	<path class="st1" d="M587.1,210.6c0.8-10.4,0.4-21.1,2.6-31.2c7.6-35.6,39.3-61.7,75.4-63c39.5-1.4,72.2,21.2,83.1,57.5
		c0.7,2.4,1.6,4.8,1.8,7.2c0.6,7,3.6,8.8,10.4,6.5c11.1-3.8,11.7-3.2,11.4,8.6c-0.3,17.6,0.9,35.5-2,52.7
		c-6.1,36.2-38.7,62.3-75.6,63c-42,0.8-72.2-19.2-83.3-55c-0.4-1.3-0.8-2.6-1.2-4c-1.2-4.4-1.2-10.3-4.1-12.8
		c-2.1-1.8-8.1,1-12.3,1.9c-4.9,1-5.7-2-5.7-5.7c0-8.5,0-17.1,0-25.6C587.5,210.6,587.3,210.6,587.1,210.6z M727.3,194.1
		c-0.7-1.1-1.2-1.5-1.3-2c-8.1-36.2-24.2-49.2-61-49.2c-25.4,0.1-47,18.3-50.2,43.6c-1.6,12.2-1.4,24.7-1.6,37.1
		c-0.2,13.3,0.3,13.7,12.7,9.9c5.3-1.7,7.5-0.5,8.5,5c5.3,30.5,22.4,45.6,53.9,48c26.7,2.1,52.8-16.8,56.2-43.1
		c2.2-17,0.4-34.5,0.4-52.8C738.4,191.8,732.7,193,727.3,194.1z"/>
	<path class="st1" d="M53.9,210.5c0-26.7-0.2-53.4,0.1-80.1c0.1-7.9,1.2-15.9,2.8-23.7c3.1-15,13.7-24,27.8-25.9
		c17.3-2.4,35.1-1.8,52.7-2.4c5.1-0.2,7.6,2.7,7.6,7.7c-0.2,32.5,4,26.8-24.2,27.2c-19.7,0.3-25.2,5.5-25.3,24.9
		c0,9.1,0.3,18.2-0.1,27.3c-0.3,7.6,3.3,10.5,10.4,10.4c8.5-0.1,17.1,0.1,25.6,0.1c7-0.1,9.2,3.5,8.4,10c-1.7,12.8-8.9,19.9-22,20
		c-25.6,0.2-20.3,1.7-20.6,21.5c-0.3,23.1,0,46.3-0.1,69.4c0,10.1-1.5,11.5-11.4,11.6c-6.3,0.1-12.7,0.1-19,0
		C56,308.1,54,306.1,54,295.6C53.9,267.2,53.9,238.9,53.9,210.5z"/>
	<path class="st1" d="M803.2,242.4c0-6.3-0.4-12.7,0.1-19c0.6-9.4,0.5-17.7-10.2-22.3c-3.3-1.4-5.5-6.7-6.9-10.7
		c-3.1-8.8-0.7-12.5,8.5-12.8c7-0.2,8.8-3.2,8.7-9.7c-0.3-19.3,0.1-38.6-0.2-57.9c-0.1-7.5,2.9-9.9,10.3-10.2
		c26.1-1.2,36.1,5.3,34.6,33.6c-0.6,11.8,0.1,23.7-0.2,35.5c-0.1,6.1,2.5,8.5,8.3,8.5c7.4-0.1,14.9,0.1,22.3,0.1c5.8,0,7.7,3,7,8.5
		c-1.8,13.5-10.3,21-24.9,21.4c-12.6,0.4-12.6,0.4-12.7,12.7c0,12.1-0.1,24.3,0,36.4c0.1,10.9,2.7,13.9,13.4,16.4
		c14.4,3.4,21,15.4,15.6,29.5c-0.8,2.1-4.5,4.3-6.8,4.3c-13.8,0.3-27.6,0.6-41.3-0.3c-14.6-0.9-22.1-8.8-24.2-23.6
		c-0.5-3.3-1.2-6.5-1.3-9.8c-0.2-10.2-0.1-20.4-0.1-30.6C803.3,242.4,803.3,242.4,803.2,242.4z"/>
	<path class="st1" d="M173,219.9c0-25.9,0-51.8,0-77.7c0-9.9,1-10.7,11-10.9c27.4-0.3,30.9,3.2,30.9,30.7c0,44.6,0,89.3,0,133.9
		c0,11.9-0.7,12.5-12.8,12.6c-6.3,0-12.7-0.3-19,0.1c-7.5,0.4-10.3-2.7-10.2-10.2C173.2,272.2,173,246.1,173,219.9z"/>
	<path class="st1" d="M193.2,113.2c-22.3-0.1-20.1,2.1-20.2-20.6c0-14.4,0.3-14.7,14.9-14.4c20.1,0.4,27.1,7.5,26.6,26.2
		c-0.2,6.3-2.6,9.1-8.9,8.9C201.5,113.1,197.4,113.2,193.2,113.2z"/>
	<path class="st1" d="M653.9,223.1c-11.1,1.7-11.1,1.7-11.1-8.7c0-16.9,8-27.4,23.1-30.5c14.6-3,27,4.2,32.9,19.5
		c1.6,4.1,3.2,5.9,7.8,4.7c1.5-0.4,4.9,1.4,5.4,2.8c5,15.1-3,32.9-17,38.9c-16.2,6.9-33.6-1.5-38.6-18.6
		C655.6,228.6,654.8,226,653.9,223.1z"/>
</g>
</svg>
